<?xml version="1.0"?>
<svg width="512" height="512" xmlns="http://www.w3.org/2000/svg" xmlns:svg="http://www.w3.org/2000/svg" clip-rule="evenodd" fill-rule="evenodd">
 <g class="layer">
  <title>Layer 1</title>
  <path d="m256,0c141.38,0 256,114.61 256,256s-114.62,256 -256,256s-256,-114.62 -256,-256s114.61,-256 256,-256zm104.93,160.62a250.43,250.43 0 0 0 -62.38,-19.18a173.88,173.88 0 0 0 -7.97,16.24a232.56,232.56 0 0 0 -34.62,-2.6c-11.56,0 -23.19,0.88 -34.62,2.58c-2.33,-5.51 -5.04,-10.97 -7.98,-16.22a252.58,252.58 0 0 0 -62.4,19.22c-39.48,58.41 -50.18,115.36 -44.83,171.5a251.49,251.49 0 0 0 76.5,38.39c6.17,-8.32 11.69,-17.19 16.38,-26.41a161.68,161.68 0 0 1 -25.81,-12.32c2.17,-1.57 4.28,-3.19 6.33,-4.76c23.91,11.23 50.04,17.09 76.47,17.09c26.44,0 52.56,-5.86 76.47,-17.09c2.07,1.69 4.19,3.31 6.33,4.76a162.69,162.69 0 0 1 -25.86,12.35a183.97,183.97 0 0 0 16.39,26.39a250.5,250.5 0 0 0 76.55,-38.39l-0.01,0.01c6.28,-65.1 -10.72,-121.53 -44.94,-171.56zm-155.15,137.01c-14.91,0 -27.23,-13.53 -27.23,-30.18c0,-16.64 11.89,-30.29 27.18,-30.29c15.29,0 27.51,13.65 27.25,30.29c-0.26,16.65 -12.01,30.18 -27.2,30.18zm100.44,0c-14.93,0 -27.2,-13.53 -27.2,-30.18c0,-16.64 11.89,-30.29 27.2,-30.29c15.31,0 27.44,13.65 27.18,30.29c-0.26,16.65 -11.99,30.18 -27.18,30.18z" fill="#ffffff" id="svg_1"/>
 </g>
</svg>