<?xml version="1.0"?>
<svg width="509" height="509" xmlns="http://www.w3.org/2000/svg" xmlns:svg="http://www.w3.org/2000/svg" clip-rule="evenodd" fill-rule="evenodd">
 <g class="layer">
  <title>Layer 1</title>
  <g fill-rule="nonzero" id="svg_1">
   <path d="m509,254.5c0,-140.56 -113.94,-254.5 -254.5,-254.5s-254.5,113.94 -254.5,254.5c0,119.36 82.17,219.5 193.02,247.01l0,-169.24l-52.48,0l0,-77.77l52.48,0l0,-33.51c0,-86.63 39.2,-126.78 124.24,-126.78c16.13,0 43.95,3.17 55.33,6.33l0,70.5c-6.01,-0.63 -16.44,-0.95 -29.4,-0.95c-41.73,0 -57.86,15.81 -57.86,56.91l0,27.5l83.13,0l-14.28,77.77l-68.85,0l0,174.87c126.02,-15.22 223.67,-122.52 223.67,-252.64z" fill="#ffffff" id="svg_2"/>
  </g>
 </g>
</svg>