<?xml version="1.0"?>
<svg width="512" height="512" xmlns="http://www.w3.org/2000/svg" xmlns:svg="http://www.w3.org/2000/svg" clip-rule="evenodd" fill-rule="evenodd">

 <g class="layer">
  <title>Layer 1</title>
  <circle cx="256" cy="256" fill="#ffffff" id="svg_1" r="256"/>
  <path d="m115.88,253.3c74.63,-32.52 124.39,-53.95 149.29,-64.31c71.1,-29.57 85.87,-34.71 95.5,-34.88c2.12,-0.03 6.85,0.49 9.92,2.98c2.59,2.1 3.3,4.94 3.64,6.93c0.34,2 0.77,6.53 0.43,10.08c-3.85,40.48 -20.52,138.71 -29,184.05c-3.59,19.19 -10.66,25.62 -17.5,26.25c-14.86,1.37 -26.15,-9.83 -40.55,-19.27c-22.53,-14.76 -35.26,-23.96 -57.13,-38.37c-25.28,-16.66 -8.89,-25.81 5.51,-40.77c3.77,-3.92 69.27,-63.5 70.54,-68.9c0.16,-0.68 0.31,-3.2 -1.19,-4.53s-3.71,-0.87 -5.3,-0.51c-2.26,0.51 -38.25,24.3 -107.98,71.37c-10.22,7.02 -19.48,10.43 -27.77,10.26c-9.14,-0.2 -26.72,-5.17 -39.79,-9.42c-16.03,-5.21 -28.77,-7.97 -27.66,-16.82c0.57,-4.61 6.92,-9.32 19.04,-14.14z" fill="#010e0b" id="svg_2"/>
 </g>
</svg>