<svg width="12" height="115" viewBox="0 0 12 115" fill="none" xmlns="http://www.w3.org/2000/svg">
<path d="M6 103.667C3.05448 103.667 0.666662 106.054 0.666662 109C0.666662 111.946 3.05448 114.333 6 114.333C8.94551 114.333 11.3333 111.946 11.3333 109C11.3333 106.054 8.94551 103.667 6 103.667ZM5 -4.37114e-08L5 1.94643L7 1.94643L7 4.37114e-08L5 -4.37114e-08ZM5 5.83929L5 9.73214L7 9.73214L7 5.83929L5 5.83929ZM5 13.625L5 17.5179L7 17.5179L7 13.625L5 13.625ZM5 21.4107L5 25.3036L7 25.3036L7 21.4107L5 21.4107ZM5 29.1964L5 33.0893L7 33.0893L7 29.1964L5 29.1964ZM5 36.9821L5 40.875L7 40.875L7 36.9821L5 36.9821ZM5 44.7679L5 48.6607L7 48.6607L7 44.7679L5 44.7679ZM5 52.5536L5 56.4464L7 56.4464L7 52.5536L5 52.5536ZM5 60.3393L5 64.2321L7 64.2321L7 60.3393L5 60.3393ZM5 68.125L5 72.0179L7 72.0179L7 68.125L5 68.125ZM5 75.9107L5 79.8036L7 79.8036L7 75.9107L5 75.9107ZM5 83.6964L5 87.5893L7 87.5893L7 83.6964L5 83.6964ZM5 91.4822L5 95.375L7 95.375L7 91.4822L5 91.4822ZM5 99.2679L5 103.161L7 103.161L7 99.2679L5 99.2679ZM5 107.054L5 109L7 109L7 107.054L5 107.054Z" fill="#C2C2C2"/>
</svg>
