{
  "accessors": [
    {
      "bufferView": 2,
      "componentType": 5126,
      "count": 24728,
      "max": [
        0.9984710216522217,
        0.6400989890098572,
        0.32679399847984314
      ],
      "min": [
        -0.9984710216522217,
        -0.6488379836082458,
        -0.39042899012565613
      ],
      "type": "VEC3"
    },
    {
      "bufferView": 2,
      "byteOffset": 296736,
      "componentType": 5126,
      "count": 24728,
      "max": [
        1.0,
        1.0,
        1.0
      ],
      "min": [
        -1.0,
        -1.0,
        -1.0
      ],
      "type": "VEC3"
    },
    {
      "bufferView": 3,
      "componentType": 5126,
      "count": 24728,
      "max": [
        0.9999812841415405,
        0.9999988675117493,
        1.0,
        1.0
      ],
      "min": [
        -0.9999809265136719,
        -0.9999999403953552,
        -1.0,
        1.0
      ],
      "type": "VEC4"
    },
    {
      "bufferView": 1,
      "componentType": 5126,
      "count": 24728,
      "max": [
        0.9763380289077759,
        0.9978899955749512
      ],
      "min": [
        0.002016110112890601,
        0.0019531199941411614
      ],
      "type": "VEC2"
    },
    {
      "bufferView": 1,
      "byteOffset": 197824,
      "componentType": 5126,
      "count": 24728,
      "max": [
        0.9763380289077759,
        0.9978899955749512
      ],
      "min": [
        0.002016110112890601,
        0.0019531199941411614
      ],
      "type": "VEC2"
    },
    {
      "bufferView": 1,
      "byteOffset": 395648,
      "componentType": 5126,
      "count": 24728,
      "max": [
        0.9763380289077759,
        0.9978899955749512
      ],
      "min": [
        0.002016110112890601,
        0.0019531199941411614
      ],
      "type": "VEC2"
    },
    {
      "bufferView": 1,
      "byteOffset": 593472,
      "componentType": 5126,
      "count": 24728,
      "max": [
        0.9763380289077759,
        0.9978899955749512
      ],
      "min": [
        0.002016110112890601,
        0.0019531199941411614
      ],
      "type": "VEC2"
    },
    {
      "bufferView": 1,
      "byteOffset": 791296,
      "componentType": 5126,
      "count": 24728,
      "max": [
        0.9763380289077759,
        0.9978899955749512
      ],
      "min": [
        0.002016110112890601,
        0.0019531199941411614
      ],
      "type": "VEC2"
    },
    {
      "bufferView": 1,
      "byteOffset": 989120,
      "componentType": 5126,
      "count": 24728,
      "max": [
        0.9763380289077759,
        0.9978899955749512
      ],
      "min": [
        0.002016110112890601,
        0.0019531199941411614
      ],
      "type": "VEC2"
    },
    {
      "bufferView": 1,
      "byteOffset": 1186944,
      "componentType": 5126,
      "count": 24728,
      "max": [
        0.9763380289077759,
        0.9978899955749512
      ],
      "min": [
        0.002016110112890601,
        0.0019531199941411614
      ],
      "type": "VEC2"
    },
    {
      "bufferView": 1,
      "byteOffset": 1384768,
      "componentType": 5126,
      "count": 24728,
      "max": [
        0.9763380289077759,
        0.9978899955749512
      ],
      "min": [
        0.002016110112890601,
        0.0019531199941411614
      ],
      "type": "VEC2"
    },
    {
      "bufferView": 1,
      "byteOffset": 1582592,
      "componentType": 5126,
      "count": 24728,
      "max": [
        0.9763380289077759,
        0.9978899955749512
      ],
      "min": [
        0.002016110112890601,
        0.0019531199941411614
      ],
      "type": "VEC2"
    },
    {
      "bufferView": 0,
      "componentType": 5125,
      "count": 138180,
      "type": "SCALAR"
    },
    {
      "bufferView": 2,
      "byteOffset": 593472,
      "componentType": 5126,
      "count": 29181,
      "max": [
        0.8315790295600891,
        0.6499390006065369,
        0.40994998812675476
      ],
      "min": [
        -0.799278974533081,
        -0.1982859969139099,
        -0.23951099812984467
      ],
      "type": "VEC3"
    },
    {
      "bufferView": 2,
      "byteOffset": 943644,
      "componentType": 5126,
      "count": 29181,
      "max": [
        1.0,
        1.0,
        1.0
      ],
      "min": [
        -1.0,
        -1.0,
        -1.0
      ],
      "type": "VEC3"
    },
    {
      "bufferView": 1,
      "byteOffset": 1780416,
      "componentType": 5126,
      "count": 29181,
      "max": [
        0.9942709803581238,
        0.9980469942092896
      ],
      "min": [
        0.0019531199941411614,
        0.0019531199941411614
      ],
      "type": "VEC2"
    },
    {
      "bufferView": 1,
      "byteOffset": 2013864,
      "componentType": 5126,
      "count": 29181,
      "max": [
        0.9942709803581238,
        0.9980469942092896
      ],
      "min": [
        0.0019531199941411614,
        0.0019531199941411614
      ],
      "type": "VEC2"
    },
    {
      "bufferView": 1,
      "byteOffset": 2247312,
      "componentType": 5126,
      "count": 29181,
      "max": [
        0.9942709803581238,
        0.9980469942092896
      ],
      "min": [
        0.0019531199941411614,
        0.0019531199941411614
      ],
      "type": "VEC2"
    },
    {
      "bufferView": 1,
      "byteOffset": 2480760,
      "componentType": 5126,
      "count": 29181,
      "max": [
        0.9942709803581238,
        0.9980469942092896
      ],
      "min": [
        0.0019531199941411614,
        0.0019531199941411614
      ],
      "type": "VEC2"
    },
    {
      "bufferView": 1,
      "byteOffset": 2714208,
      "componentType": 5126,
      "count": 29181,
      "max": [
        0.9942709803581238,
        0.9980469942092896
      ],
      "min": [
        0.0019531199941411614,
        0.0019531199941411614
      ],
      "type": "VEC2"
    },
    {
      "bufferView": 1,
      "byteOffset": 2947656,
      "componentType": 5126,
      "count": 29181,
      "max": [
        0.9942709803581238,
        0.9980469942092896
      ],
      "min": [
        0.0019531199941411614,
        0.0019531199941411614
      ],
      "type": "VEC2"
    },
    {
      "bufferView": 1,
      "byteOffset": 3181104,
      "componentType": 5126,
      "count": 29181,
      "max": [
        0.9942709803581238,
        0.9980469942092896
      ],
      "min": [
        0.0019531199941411614,
        0.0019531199941411614
      ],
      "type": "VEC2"
    },
    {
      "bufferView": 0,
      "byteOffset": 552720,
      "componentType": 5125,
      "count": 154992,
      "type": "SCALAR"
    },
    {
      "bufferView": 2,
      "byteOffset": 1293816,
      "componentType": 5126,
      "count": 7482,
      "max": [
        1.0,
        0.6402999758720398,
        0.30517399311065674
      ],
      "min": [
        -1.0,
        -0.6499390006065369,
        -0.40994998812675476
      ],
      "type": "VEC3"
    },
    {
      "bufferView": 2,
      "byteOffset": 1383600,
      "componentType": 5126,
      "count": 7482,
      "max": [
        1.0,
        0.9999764561653137,
        1.0
      ],
      "min": [
        -1.0,
        -0.9941922426223755,
        -1.0
      ],
      "type": "VEC3"
    },
    {
      "bufferView": 3,
      "byteOffset": 395648,
      "componentType": 5126,
      "count": 7482,
      "max": [
        0.9997607469558716,
        0.9999974370002747,
        0.9999995827674866,
        1.0
      ],
      "min": [
        -0.9999662637710571,
        -0.9999969005584717,
        -0.9932405352592468,
        1.0
      ],
      "type": "VEC4"
    },
    {
      "bufferView": 1,
      "byteOffset": 3414552,
      "componentType": 5126,
      "count": 7482,
      "max": [
        0.9625040292739868,
        0.9978929758071899
      ],
      "min": [
        0.001956220017746091,
        0.002103809965774417
      ],
      "type": "VEC2"
    },
    {
      "bufferView": 1,
      "byteOffset": 3474408,
      "componentType": 5126,
      "count": 7482,
      "max": [
        0.9625040292739868,
        0.9978929758071899
      ],
      "min": [
        0.001956220017746091,
        0.002103809965774417
      ],
      "type": "VEC2"
    },
    {
      "bufferView": 1,
      "byteOffset": 3534264,
      "componentType": 5126,
      "count": 7482,
      "max": [
        0.9625040292739868,
        0.9978929758071899
      ],
      "min": [
        0.001956220017746091,
        0.002103809965774417
      ],
      "type": "VEC2"
    },
    {
      "bufferView": 1,
      "byteOffset": 3594120,
      "componentType": 5126,
      "count": 7482,
      "max": [
        0.9625040292739868,
        0.9978929758071899
      ],
      "min": [
        0.001956220017746091,
        0.002103809965774417
      ],
      "type": "VEC2"
    },
    {
      "bufferView": 1,
      "byteOffset": 3653976,
      "componentType": 5126,
      "count": 7482,
      "max": [
        0.9625040292739868,
        0.9978929758071899
      ],
      "min": [
        0.001956220017746091,
        0.002103809965774417
      ],
      "type": "VEC2"
    },
    {
      "bufferView": 1,
      "byteOffset": 3713832,
      "componentType": 5126,
      "count": 7482,
      "max": [
        0.9625040292739868,
        0.9978929758071899
      ],
      "min": [
        0.001956220017746091,
        0.002103809965774417
      ],
      "type": "VEC2"
    },
    {
      "bufferView": 1,
      "byteOffset": 3773688,
      "componentType": 5126,
      "count": 7482,
      "max": [
        0.9625040292739868,
        0.9978929758071899
      ],
      "min": [
        0.001956220017746091,
        0.002103809965774417
      ],
      "type": "VEC2"
    },
    {
      "bufferView": 0,
      "byteOffset": 1172688,
      "componentType": 5125,
      "count": 41856,
      "type": "SCALAR"
    }
  ],
  "asset": {
    "extras": {
      "author": "Pokkenjake2021 (https://sketchfab.com/Pokkenjake_2021)",
      "license": "CC-BY-4.0 (http://creativecommons.org/licenses/by/4.0/)",
      "source": "https://sketchfab.com/3d-models/playstation-5-controler-6b7d44f26f11402f9d424ed0b114daf5",
      "title": "Playstation 5 controler"
    },
    "generator": "Sketchfab-12.68.0",
    "version": "2.0"
  },
  "bufferViews": [
    {
      "buffer": 0,
      "byteLength": 1340112,
      "name": "floatBufferViews",
      "target": 34963
    },
    {
      "buffer": 0,
      "byteLength": 3833544,
      "byteOffset": 1340112,
      "byteStride": 8,
      "name": "floatBufferViews",
      "target": 34962
    },
    {
      "buffer": 0,
      "byteLength": 1473384,
      "byteOffset": 5173656,
      "byteStride": 12,
      "name": "floatBufferViews",
      "target": 34962
    },
    {
      "buffer": 0,
      "byteLength": 515360,
      "byteOffset": 6647040,
      "byteStride": 16,
      "name": "floatBufferViews",
      "target": 34962
    }
  ],
  "buffers": [
    {
      "byteLength": 7162400,
      "uri": "scene.bin"
    }
  ],
  "extensionsUsed": [
    "KHR_materials_transmission"
  ],
  "images": [
    {
      "uri": "textures/1011_baseColor.png"
    },
    {
      "uri": "textures/1011_metallicRoughness.png"
    },
    {
      "uri": "textures/1011_emissive.jpeg"
    },
    {
      "uri": "textures/1011_normal.png"
    },
    {
      "uri": "textures/1011_transmission.png"
    },
    {
      "uri": "textures/1001_baseColor.png"
    },
    {
      "uri": "textures/1001_metallicRoughness.png"
    },
    {
      "uri": "textures/1001_transmission.png"
    },
    {
      "uri": "textures/1002_baseColor.png"
    },
    {
      "uri": "textures/1002_metallicRoughness.png"
    },
    {
      "uri": "textures/1002_normal.png"
    }
  ],
  "materials": [
    {
      "alphaMode": "BLEND",
      "doubleSided": true,
      "emissiveFactor": [
        1.0,
        1.0,
        1.0
      ],
      "emissiveTexture": {
        "index": 2,
        "texCoord": 2
      },
      "extensions": {
        "KHR_materials_transmission": {
          "transmissionFactor": 1.0,
          "transmissionTexture": {
            "index": 4,
            "texCoord": 1
          }
        }
      },
      "name": "1011",
      "normalTexture": {
        "index": 3,
        "texCoord": 1
      },
      "pbrMetallicRoughness": {
        "baseColorTexture": {
          "index": 0
        },
        "metallicRoughnessTexture": {
          "index": 1,
          "texCoord": 1
        }
      }
    },
    {
      "alphaMode": "BLEND",
      "doubleSided": true,
      "extensions": {
        "KHR_materials_transmission": {
          "transmissionFactor": 1.0,
          "transmissionTexture": {
            "index": 7
          }
        }
      },
      "name": "1001",
      "pbrMetallicRoughness": {
        "baseColorTexture": {
          "index": 5
        },
        "metallicRoughnessTexture": {
          "index": 6
        }
      }
    },
    {
      "doubleSided": true,
      "name": "1002",
      "normalTexture": {
        "index": 10
      },
      "pbrMetallicRoughness": {
        "baseColorTexture": {
          "index": 8
        },
        "metallicRoughnessTexture": {
          "index": 9
        }
      }
    }
  ],
  "meshes": [
    {
      "name": "Object_0",
      "primitives": [
        {
          "attributes": {
            "NORMAL": 1,
            "POSITION": 0,
            "TANGENT": 2,
            "TEXCOORD_0": 3,
            "TEXCOORD_1": 4,
            "TEXCOORD_2": 5,
            "TEXCOORD_3": 6,
            "TEXCOORD_4": 7,
            "TEXCOORD_5": 8,
            "TEXCOORD_6": 9,
            "TEXCOORD_7": 10,
            "TEXCOORD_8": 11
          },
          "indices": 12,
          "material": 0,
          "mode": 4
        }
      ]
    },
    {
      "name": "Object_1",
      "primitives": [
        {
          "attributes": {
            "NORMAL": 14,
            "POSITION": 13,
            "TEXCOORD_0": 15,
            "TEXCOORD_1": 16,
            "TEXCOORD_2": 17,
            "TEXCOORD_3": 18,
            "TEXCOORD_4": 19,
            "TEXCOORD_5": 20,
            "TEXCOORD_6": 21
          },
          "indices": 22,
          "material": 1,
          "mode": 4
        }
      ]
    },
    {
      "name": "Object_2",
      "primitives": [
        {
          "attributes": {
            "NORMAL": 24,
            "POSITION": 23,
            "TANGENT": 25,
            "TEXCOORD_0": 26,
            "TEXCOORD_1": 27,
            "TEXCOORD_2": 28,
            "TEXCOORD_3": 29,
            "TEXCOORD_4": 30,
            "TEXCOORD_5": 31,
            "TEXCOORD_6": 32
          },
          "indices": 33,
          "material": 2,
          "mode": 4
        }
      ]
    }
  ],
  "nodes": [
    {
      "children": [
        1
      ],
      "matrix": [
        -0.999972939491272,
        -0.0005456955404952152,
        -0.007338693365454674,
        0.0,
        -0.007338694762438536,
        -2.2190436803270152e-16,
        0.9999730587005615,
        0.0,
        -0.0005456808139570057,
        0.9999998807907104,
        -4.0046929823400745e-06,
        0.0,
        2.5174220354529098e-05,
        7.716171701588881e-09,
        -2.448050054226769e-06,
        1.0
      ],
      "name": "Sketchfab_model"
    },
    {
      "children": [
        2
      ],
      "name": "root"
    },
    {
      "children": [
        3
      ],
      "matrix": [
        1.0,
        0.0,
        0.0,
        0.0,
        0.0,
        2.220446049250313e-16,
        1.0,
        0.0,
        0.0,
        -1.0,
        2.220446049250313e-16,
        0.0,
        0.0,
        0.0,
        0.0,
        1.0
      ],
      "name": "GLTF_SceneRootNode"
    },
    {
      "children": [
        4
      ],
      "matrix": [
        1.0,
        0.0,
        0.0,
        0.0,
        0.0,
        2.220446049250313e-16,
        -1.0,
        0.0,
        0.0,
        1.0,
        2.220446049250313e-16,
        0.0,
        0.0,
        0.0,
        0.0,
        1.0
      ],
      "name": "Sketchfab_model_0"
    },
    {
      "children": [
        5
      ],
      "name": "root_1"
    },
    {
      "children": [
        6
      ],
      "matrix": [
        1.0,
        0.0,
        0.0,
        0.0,
        0.0,
        2.220446049250313e-16,
        1.0,
        0.0,
        0.0,
        -1.0,
        2.220446049250313e-16,
        0.0,
        0.0,
        0.0,
        0.0,
        1.0
      ],
      "name": "GLTF_SceneRootNode_2"
    },
    {
      "children": [
        7
      ],
      "matrix": [
        -0.19568417966365814,
        -1.2308557266422017e-32,
        5.5432813918526605e-17,
        0.0,
        5.5432813918526605e-17,
        -4.345061636349582e-17,
        0.19568417966365814,
        0.0,
        0.0,
        0.19568417966365814,
        4.345061636349582e-17,
        0.0,
        1.3947486877441406e-05,
        4.343193804601242e-09,
        -1.4079718084758497e-06,
        1.0
      ],
      "name": "Sketchfab_model_0_3"
    },
    {
      "children": [
        8
      ],
      "matrix": [
        1.0,
        0.0,
        0.0,
        0.0,
        0.0,
        -4.371138828673793e-08,
        1.0,
        0.0,
        0.0,
        -1.0,
        -4.371138828673793e-08,
        0.0,
        0.0,
        0.0,
        0.0,
        1.0
      ],
      "name": "Collada visual scene group_1_4"
    },
    {
      "children": [
        9,
        12,
        15
      ],
      "name": "DualSense_2_5"
    },
    {
      "children": [
        10
      ],
      "name": "defaultMaterial_3_6"
    },
    {
      "children": [
        11
      ],
      "name": "Object_7_7"
    },
    {
      "mesh": 0,
      "name": "Object_11"
    },
    {
      "children": [
        13
      ],
      "name": "defaultMaterial_4_8"
    },
    {
      "children": [
        14
      ],
      "name": "Object_9_9"
    },
    {
      "mesh": 1,
      "name": "Object_14"
    },
    {
      "children": [
        16
      ],
      "name": "defaultMaterial_5_10"
    },
    {
      "children": [
        17
      ],
      "name": "Object_11_11"
    },
    {
      "mesh": 2,
      "name": "Object_17"
    }
  ],
  "samplers": [
    {
      "magFilter": 9729,
      "minFilter": 9987,
      "wrapS": 10497,
      "wrapT": 10497
    }
  ],
  "scene": 0,
  "scenes": [
    {
      "name": "Sketchfab_Scene",
      "nodes": [
        0
      ]
    }
  ],
  "textures": [
    {
      "sampler": 0,
      "source": 0
    },
    {
      "sampler": 0,
      "source": 1
    },
    {
      "sampler": 0,
      "source": 2
    },
    {
      "sampler": 0,
      "source": 3
    },
    {
      "sampler": 0,
      "source": 4
    },
    {
      "sampler": 0,
      "source": 5
    },
    {
      "sampler": 0,
      "source": 6
    },
    {
      "sampler": 0,
      "source": 7
    },
    {
      "sampler": 0,
      "source": 8
    },
    {
      "sampler": 0,
      "source": 9
    },
    {
      "sampler": 0,
      "source": 10
    }
  ]
}
