<svg width="338" height="100" viewBox="0 0 338 100" fill="none" xmlns="http://www.w3.org/2000/svg">
<rect x="1.46289" y="1" width="335" height="98" rx="12" fill="black"/>
<rect x="1.46289" y="1" width="335" height="98" rx="12" stroke="#999999" stroke-width="2"/>
<path d="M75.4867 36.5V22.5H80.9467C82.1734 22.5 83.2201 22.6933 84.0867 23.08C84.9534 23.4667 85.6201 24.0267 86.0867 24.76C86.5534 25.4933 86.7867 26.3667 86.7867 27.38C86.7867 28.3933 86.5534 29.2667 86.0867 30C85.6201 30.72 84.9534 31.28 84.0867 31.68C83.2201 32.0667 82.1734 32.26 80.9467 32.26H76.5867L77.4867 31.32V36.5H75.4867ZM77.4867 31.52L76.5867 30.52H80.8867C82.1667 30.52 83.1334 30.2467 83.7867 29.7C84.4534 29.1533 84.7867 28.38 84.7867 27.38C84.7867 26.38 84.4534 25.6067 83.7867 25.06C83.1334 24.5133 82.1667 24.24 80.8867 24.24H76.5867L77.4867 23.24V31.52ZM89.725 36.5V22.5H91.725V34.76H99.305V36.5H89.725ZM99.48 36.5L105.82 22.5H107.8L114.16 36.5H112.06L106.4 23.62H107.2L101.54 36.5H99.48ZM102.18 33L102.72 31.4H110.6L111.18 33H102.18ZM118.789 36.5V31.14L119.249 32.38L113.229 22.5H115.369L120.429 30.84H119.269L124.349 22.5H126.329L120.329 32.38L120.769 31.14V36.5H118.789ZM140.049 36.66C138.982 36.66 137.989 36.48 137.069 36.12C136.162 35.76 135.376 35.26 134.709 34.62C134.042 33.9667 133.522 33.2067 133.149 32.34C132.776 31.4733 132.589 30.5267 132.589 29.5C132.589 28.4733 132.776 27.5267 133.149 26.66C133.522 25.7933 134.042 25.04 134.709 24.4C135.376 23.7467 136.162 23.24 137.069 22.88C137.976 22.52 138.969 22.34 140.049 22.34C141.116 22.34 142.096 22.52 142.989 22.88C143.896 23.2267 144.682 23.7267 145.349 24.38C146.029 25.02 146.549 25.7733 146.909 26.64C147.282 27.5067 147.469 28.46 147.469 29.5C147.469 30.54 147.282 31.4933 146.909 32.36C146.549 33.2267 146.029 33.9867 145.349 34.64C144.682 35.28 143.896 35.78 142.989 36.14C142.096 36.4867 141.116 36.66 140.049 36.66ZM140.049 34.88C140.822 34.88 141.536 34.7467 142.189 34.48C142.856 34.2133 143.429 33.84 143.909 33.36C144.402 32.8667 144.782 32.2933 145.049 31.64C145.329 30.9867 145.469 30.2733 145.469 29.5C145.469 28.7267 145.329 28.0133 145.049 27.36C144.782 26.7067 144.402 26.14 143.909 25.66C143.429 25.1667 142.856 24.7867 142.189 24.52C141.536 24.2533 140.822 24.12 140.049 24.12C139.262 24.12 138.536 24.2533 137.869 24.52C137.216 24.7867 136.642 25.1667 136.149 25.66C135.656 26.14 135.269 26.7067 134.989 27.36C134.722 28.0133 134.589 28.7267 134.589 29.5C134.589 30.2733 134.722 30.9867 134.989 31.64C135.269 32.2933 135.656 32.8667 136.149 33.36C136.642 33.84 137.216 34.2133 137.869 34.48C138.536 34.7467 139.262 34.88 140.049 34.88ZM150.526 36.5V22.5H152.166L161.426 34H160.566V22.5H162.566V36.5H160.926L151.666 25H152.526V36.5H150.526ZM175.347 36.5L170.667 22.5H172.727L177.027 35.42H175.987L180.447 22.5H182.287L186.647 35.42H185.647L190.007 22.5H191.907L187.227 36.5H185.127L181.047 24.52H181.587L177.487 36.5H175.347ZM196.174 28.54H203.374V30.24H196.174V28.54ZM196.354 34.76H204.514V36.5H194.354V22.5H204.234V24.24H196.354V34.76ZM207.752 36.5V22.5H214.032C215.646 22.5 216.886 22.8267 217.752 23.48C218.619 24.12 219.052 25 219.052 26.12C219.052 26.88 218.879 27.52 218.532 28.04C218.199 28.56 217.746 28.96 217.172 29.24C216.599 29.52 215.979 29.66 215.312 29.66L215.672 29.06C216.472 29.06 217.179 29.2 217.792 29.48C218.406 29.76 218.892 30.1733 219.252 30.72C219.612 31.2533 219.792 31.92 219.792 32.72C219.792 33.92 219.339 34.8533 218.432 35.52C217.539 36.1733 216.206 36.5 214.432 36.5H207.752ZM209.752 34.88H214.352C215.459 34.88 216.306 34.6933 216.892 34.32C217.479 33.9467 217.772 33.36 217.772 32.56C217.772 31.7467 217.479 31.1533 216.892 30.78C216.306 30.4067 215.459 30.22 214.352 30.22H209.572V28.6H213.852C214.866 28.6 215.652 28.4133 216.212 28.04C216.772 27.6667 217.052 27.1067 217.052 26.36C217.052 25.6133 216.772 25.0533 216.212 24.68C215.652 24.3067 214.866 24.12 213.852 24.12H209.752V34.88ZM226.969 36.66C225.902 36.66 224.882 36.5 223.909 36.18C222.936 35.8467 222.169 35.42 221.609 34.9L222.349 33.34C222.882 33.8067 223.562 34.1933 224.389 34.5C225.216 34.8067 226.076 34.96 226.969 34.96C227.782 34.96 228.442 34.8667 228.949 34.68C229.456 34.4933 229.829 34.24 230.069 33.92C230.309 33.5867 230.429 33.2133 230.429 32.8C230.429 32.32 230.269 31.9333 229.949 31.64C229.642 31.3467 229.236 31.1133 228.729 30.94C228.236 30.7533 227.689 30.5933 227.089 30.46C226.489 30.3267 225.882 30.1733 225.269 30C224.669 29.8133 224.116 29.58 223.609 29.3C223.116 29.02 222.716 28.6467 222.409 28.18C222.102 27.7 221.949 27.0867 221.949 26.34C221.949 25.62 222.136 24.96 222.509 24.36C222.896 23.7467 223.482 23.26 224.269 22.9C225.069 22.5267 226.082 22.34 227.309 22.34C228.122 22.34 228.929 22.4467 229.729 22.66C230.529 22.8733 231.222 23.18 231.809 23.58L231.149 25.18C230.549 24.78 229.916 24.4933 229.249 24.32C228.582 24.1333 227.936 24.04 227.309 24.04C226.522 24.04 225.876 24.14 225.369 24.34C224.862 24.54 224.489 24.8067 224.249 25.14C224.022 25.4733 223.909 25.8467 223.909 26.26C223.909 26.7533 224.062 27.1467 224.369 27.44C224.689 27.7333 225.096 27.9667 225.589 28.14C226.096 28.3133 226.649 28.4733 227.249 28.62C227.849 28.7533 228.449 28.9067 229.049 29.08C229.662 29.2533 230.216 29.48 230.709 29.76C231.216 30.04 231.622 30.4133 231.929 30.88C232.236 31.3467 232.389 31.9467 232.389 32.68C232.389 33.3867 232.196 34.0467 231.809 34.66C231.422 35.26 230.822 35.7467 230.009 36.12C229.209 36.48 228.196 36.66 226.969 36.66ZM235.311 36.5V22.5H237.311V36.5H235.311ZM244.282 36.5V24.24H239.482V22.5H251.062V24.24H246.262V36.5H244.282ZM255.061 28.54H262.261V30.24H255.061V28.54ZM255.241 34.76H263.401V36.5H253.241V22.5H263.121V24.24H255.241V34.76Z" fill="white"/>
<path d="M114.585 74.5V50.7H124.989C127.573 50.7 129.839 51.1987 131.789 52.196C133.738 53.1933 135.257 54.576 136.345 56.344C137.433 58.112 137.977 60.1973 137.977 62.6C137.977 64.98 137.433 67.0653 136.345 68.856C135.257 70.624 133.738 72.0067 131.789 73.004C129.839 74.0013 127.573 74.5 124.989 74.5H114.585ZM119.005 70.76H124.785C126.575 70.76 128.117 70.42 129.409 69.74C130.723 69.06 131.732 68.108 132.435 66.884C133.16 65.66 133.523 64.232 133.523 62.6C133.523 60.9453 133.16 59.5173 132.435 58.316C131.732 57.092 130.723 56.14 129.409 55.46C128.117 54.78 126.575 54.44 124.785 54.44H119.005V70.76ZM141.515 66.816V63.28H150.865V66.816H141.515ZM151.892 74.5L162.603 50.7H166.955L177.699 74.5H173.075L163.861 53.046H165.629L156.449 74.5H151.892ZM156.823 68.992L158.013 65.524H170.865L172.054 68.992H156.823ZM180.725 74.5V50.7H190.517C192.625 50.7 194.427 51.04 195.923 51.72C197.442 52.4 198.609 53.3747 199.425 54.644C200.241 55.9133 200.649 57.4207 200.649 59.166C200.649 60.9113 200.241 62.4187 199.425 63.688C198.609 64.9573 197.442 65.932 195.923 66.612C194.427 67.292 192.625 67.632 190.517 67.632H183.173L185.145 65.558V74.5H180.725ZM185.145 66.034L183.173 63.892H190.313C192.263 63.892 193.725 63.484 194.699 62.668C195.697 61.8293 196.195 60.662 196.195 59.166C196.195 57.6473 195.697 56.48 194.699 55.664C193.725 54.848 192.263 54.44 190.313 54.44H183.173L185.145 52.264V66.034ZM205.063 74.5V50.7H214.855C216.963 50.7 218.765 51.04 220.261 51.72C221.78 52.4 222.947 53.3747 223.763 54.644C224.579 55.9133 224.987 57.4207 224.987 59.166C224.987 60.9113 224.579 62.4187 223.763 63.688C222.947 64.9573 221.78 65.932 220.261 66.612C218.765 67.292 216.963 67.632 214.855 67.632H207.511L209.483 65.558V74.5H205.063ZM209.483 66.034L207.511 63.892H214.651C216.601 63.892 218.063 63.484 219.037 62.668C220.035 61.8293 220.533 60.662 220.533 59.166C220.533 57.6473 220.035 56.48 219.037 55.664C218.063 54.848 216.601 54.44 214.651 54.44H207.511L209.483 52.264V66.034Z" fill="white"/>
</svg>
