<svg width="42" height="42" viewBox="0 0 42 42" fill="none" xmlns="http://www.w3.org/2000/svg">
<g clip-path="url(#clip0_1002_1416)">
<path d="M21 42C32.598 42 42 32.598 42 21C42 9.40202 32.598 0 21 0C9.40202 0 0 9.40202 0 21C0 32.598 9.40202 42 21 42Z" fill="#2F2F3D"/>
<path d="M30.5184 12.2406C28.7378 11.4208 26.8587 10.8362 24.9281 10.5015C24.9105 10.4981 24.8923 10.5004 24.8761 10.5081C24.86 10.5157 24.8466 10.5283 24.838 10.544C24.5816 11.0101 24.3489 11.4889 24.1406 11.9785C22.0597 11.6615 19.943 11.6615 17.8621 11.9785C17.6529 11.4877 17.4169 11.0088 17.1551 10.544C17.1462 10.5286 17.1327 10.5163 17.1167 10.5087C17.1006 10.5011 17.0826 10.4986 17.065 10.5015C15.135 10.8356 13.2565 11.4202 11.4768 12.2406C11.4615 12.247 11.4486 12.2581 11.4398 12.2723C7.87974 17.6084 6.90457 22.8132 7.38303 27.9523C7.3844 27.965 7.38829 27.9772 7.39446 27.9883C7.40064 27.9994 7.40897 28.0091 7.41897 28.0169C9.49206 29.5574 11.811 30.7333 14.2768 31.4945C14.2942 31.4997 14.3128 31.4995 14.3301 31.4938C14.3473 31.4881 14.3624 31.4773 14.3734 31.4627C14.9028 30.7397 15.372 29.9741 15.7761 29.1738C15.7816 29.1628 15.7847 29.1508 15.7853 29.1385C15.7858 29.1262 15.7838 29.1139 15.7793 29.1025C15.7747 29.0911 15.7679 29.0807 15.7591 29.0721C15.7503 29.0636 15.7398 29.0569 15.7283 29.0527C14.9884 28.7692 14.272 28.4274 13.5859 28.0304C13.5735 28.023 13.563 28.0127 13.5555 28.0003C13.548 27.988 13.5436 27.9739 13.5427 27.9595C13.5419 27.945 13.5446 27.9306 13.5506 27.9174C13.5567 27.9042 13.5659 27.8928 13.5774 27.884C13.7211 27.7764 13.8654 27.6634 14.0027 27.5493C14.0149 27.5393 14.0297 27.5329 14.0453 27.5308C14.0609 27.5287 14.0768 27.531 14.0912 27.5375C18.5857 29.5962 23.4519 29.5962 27.8933 27.5375C27.9078 27.5305 27.9239 27.5278 27.9399 27.5297C27.9559 27.5317 27.9709 27.5381 27.9834 27.5482C28.1207 27.6618 28.265 27.7759 28.4125 27.884C28.4241 27.8927 28.4333 27.9041 28.4395 27.9172C28.4456 27.9303 28.4484 27.9447 28.4477 27.9592C28.4469 27.9737 28.4426 27.9877 28.4352 28.0001C28.4278 28.0125 28.4174 28.0229 28.405 28.0304C27.7198 28.4312 27.0021 28.7732 26.2594 29.0527C26.2478 29.0571 26.2373 29.0639 26.2286 29.0726C26.2198 29.0814 26.213 29.0919 26.2086 29.1035C26.2041 29.1151 26.2022 29.1275 26.203 29.1399C26.2037 29.1523 26.207 29.1644 26.2127 29.1754C26.6236 29.9714 27.092 30.736 27.6144 31.4633C27.625 31.4783 27.64 31.4895 27.6573 31.4954C27.6747 31.5013 27.6934 31.5015 27.7109 31.4961C30.1801 30.7371 32.502 29.5611 34.5768 28.0185C34.587 28.0111 34.5954 28.0016 34.6016 27.9907C34.6078 27.9797 34.6116 27.9676 34.6127 27.955C35.1856 22.0125 33.6537 16.8502 30.5522 12.2745C30.5453 12.2595 30.5333 12.2475 30.5184 12.2406ZM16.4466 24.8234C15.0932 24.8234 13.9791 23.5773 13.9791 22.047C13.9791 20.5167 15.0723 19.2705 16.4466 19.2705C17.8321 19.2705 18.9365 20.5275 18.914 22.047C18.9151 23.5773 17.8213 24.8234 16.4466 24.8234ZM25.5723 24.8234C24.219 24.8234 23.1049 23.5773 23.1049 22.047C23.1049 20.5167 24.198 19.2705 25.5723 19.2705C26.9578 19.2705 28.0623 20.5275 28.0397 22.047C28.0403 23.5773 26.9578 24.8234 25.5723 24.8234Z" fill="#E5E5EA"/>
</g>
<defs>
<clipPath id="clip0_1002_1416">
<rect width="42" height="42" fill="white"/>
</clipPath>
</defs>
</svg>
