<svg width="120" height="36" viewBox="0 0 120 36" fill="none" xmlns="http://www.w3.org/2000/svg">
<g clip-path="url(#clip0_1231_174)">
<path d="M1.56002 20.82C2.30002 21.81 3.28002 22.52 4.05002 23.01C3.50002 24.26 3.32002 26.19 3.31002 26.27C3.30002 27.17 3.41002 28.02 3.65002 28.84C4.30002 31.05 5.77002 32.88 7.80002 33.98C9.09002 34.68 10.5 35.04 11.93 35.04C12.75 35.04 13.57 34.92 14.37 34.69C15.56 34.3 16.56 33.58 17.27 33C18.28 33.91 19.99 34.66 20.07 34.7C20.9 34.98 21.82 35.14 22.7 35.16C22.77 35.16 22.84 35.16 22.91 35.16C27.58 35.16 31.43 31.42 31.54 26.73C31.54 25.48 31.15 24.28 30.8 23.4C31.98 22.72 33.24 21.29 33.3 21.22L33.34 21.18L33.37 21.09C33.87 20.4 34.27 19.64 34.54 18.85C35.29 16.67 35.15 14.33 34.14 12.25C33.13 10.17 31.37 8.62 29.2 7.86C28.04 7.5 26.86 7.49 25.95 7.54C25.66 6.21 24.74 4.6 24.7 4.53C24.2 3.81 23.54 3.14 22.85 2.6C21.03 1.19 18.76 0.580004 16.47 0.880004C14.18 1.18 12.14 2.34 10.74 4.17C9.99002 5.2 9.61002 6.39 9.37002 7.28C8.03002 7.16 6.16002 7.58 6.07002 7.6C5.24002 7.86 4.40002 8.28 3.68002 8.79C1.79002 10.11 0.53002 12.09 0.13002 14.37C-0.26998 16.64 0.24002 18.93 1.56002 20.82ZM5.67002 20.02C5.11002 19.63 4.56002 19.2 4.32002 18.88C3.51002 17.76 3.20002 16.39 3.43002 15.02C3.67002 13.61 4.44002 12.37 5.62002 11.55C5.63002 11.54 5.64002 11.53 5.66002 11.53L5.69002 11.51C5.73002 11.49 5.79002 11.46 5.86002 11.41C7.38002 10.44 9.06002 10.71 9.07002 10.71L17.41 12.18C18.08 12.22 18.77 12.02 19.36 11.61C20.03 11.14 20.48 10.44 20.62 9.63C20.76 8.82 20.58 8.01 20.11 7.34C19.64 6.67 18.94 6.22 18.13 6.08C17.32 5.94 16.51 6.12 15.84 6.59C15.27 6.99 14.86 7.56 14.66 8.22L12.74 7.88C12.94 7.23 13.19 6.57 13.43 6.24C14.25 5.14 15.47 4.43 16.85 4.24C18.27 4.04 19.68 4.42 20.81 5.29L20.87 5.34C20.9 5.37 20.95 5.42 21.01 5.47C22.4 6.64 22.63 8.31 22.63 8.33L23.72 16.73C23.88 17.38 24.28 17.98 24.85 18.42C25.39 18.84 26.04 19.06 26.71 19.06C26.84 19.06 26.98 19.05 27.11 19.03C27.92 18.93 28.64 18.51 29.14 17.86C30.17 16.52 29.92 14.59 28.58 13.56C28.03 13.14 27.36 12.91 26.67 12.92L26.41 10.91C27.07 10.9 27.74 10.93 28.11 11.05C29.42 11.48 30.48 12.4 31.1 13.66C31.74 14.95 31.83 16.4 31.36 17.75V17.83C31.34 17.86 31.31 17.93 31.28 18.01C30.62 19.69 29.1 20.45 29.09 20.46L21.48 24.17C20.91 24.53 20.47 25.1 20.24 25.78C19.97 26.55 20.02 27.38 20.38 28.12C20.74 28.86 21.36 29.41 22.13 29.68C22.46 29.79 22.8 29.85 23.13 29.85C23.59 29.85 24.04 29.75 24.47 29.54C25.21 29.18 25.76 28.56 26.03 27.79C26.26 27.13 26.25 26.43 26.02 25.78L27.81 24.91C28.02 25.54 28.2 26.26 28.2 26.68C28.19 28.06 27.63 29.35 26.62 30.32C25.59 31.32 24.24 31.84 22.8 31.81L22.72 31.8C22.68 31.79 22.61 31.78 22.53 31.78C20.72 31.66 19.54 30.45 19.53 30.43L13.69 24.3C13.18 23.87 12.5 23.62 11.78 23.6C10.96 23.58 10.19 23.88 9.59002 24.44C9.00002 25 8.66002 25.77 8.64002 26.58C8.60002 28.27 9.94002 29.68 11.63 29.72C12.33 29.74 13 29.52 13.55 29.1L14.93 30.55C14.39 30.96 13.81 31.34 13.42 31.46C12.11 31.87 10.7 31.73 9.47002 31.07C8.21002 30.39 7.29002 29.26 6.88002 27.89L6.86002 27.82C6.86002 27.78 6.84002 27.71 6.82002 27.63C6.39002 25.88 7.18002 24.38 7.19002 24.36L11.24 16.93C11.49 16.31 11.52 15.59 11.32 14.9C10.84 13.28 9.14002 12.35 7.52002 12.83C5.90002 13.31 4.97002 15.01 5.45002 16.63C5.65002 17.3 6.06002 17.87 6.62002 18.27L5.67002 20.02Z" fill="#B226C5"/>
<path d="M17.5903 21.89C19.2803 21.89 20.6503 20.52 20.6503 18.83C20.6503 17.14 19.2803 15.77 17.5903 15.77C15.9003 15.77 14.5303 17.14 14.5303 18.83C14.5303 20.52 15.9003 21.89 17.5903 21.89Z" fill="#B226C5"/>
<path d="M48.2304 23.94C46.9904 23.94 45.9404 23.7 45.0804 23.23C44.2304 22.76 43.4904 22.17 42.8604 21.47L45.2004 19.71C45.5504 20.28 45.9804 20.72 46.5004 21.03C47.0204 21.34 47.5904 21.49 48.2104 21.49C48.8903 21.49 49.4103 21.31 49.7603 20.94C50.1103 20.57 50.3004 20.16 50.3004 19.7C50.3004 19.42 50.2204 19.18 50.0604 18.99C49.9004 18.79 49.6803 18.63 49.4203 18.49C49.1603 18.35 48.8503 18.22 48.5103 18.12C48.1603 18.01 47.8104 17.9 47.4504 17.79C46.9904 17.64 46.5204 17.49 46.0604 17.31C45.6004 17.14 45.1804 16.91 44.8104 16.62C44.4404 16.33 44.1404 15.98 43.9104 15.56C43.6804 15.14 43.5604 14.61 43.5604 13.98C43.5604 13.44 43.6704 12.94 43.9004 12.48C44.1304 12.02 44.4403 11.61 44.8503 11.26C45.2603 10.91 45.7404 10.64 46.3004 10.45C46.8604 10.25 47.4604 10.16 48.1203 10.16C48.6704 10.16 49.1704 10.21 49.6203 10.31C50.0703 10.41 50.4704 10.55 50.8404 10.72C51.2104 10.9 51.5504 11.11 51.8604 11.35C52.1704 11.59 52.4604 11.86 52.7404 12.15L50.6304 13.79C50.0404 12.88 49.2104 12.43 48.1404 12.43C47.5104 12.43 47.0403 12.58 46.7104 12.87C46.3804 13.16 46.2204 13.52 46.2204 13.95C46.2204 14.22 46.3004 14.44 46.4504 14.63C46.6004 14.81 46.8004 14.97 47.0604 15.11C47.3204 15.25 47.6204 15.38 47.9504 15.49C48.2904 15.6 48.6504 15.72 49.0204 15.84C49.4804 15.99 49.9503 16.15 50.4203 16.34C50.8903 16.53 51.3204 16.77 51.7004 17.07C52.0804 17.37 52.3904 17.73 52.6304 18.17C52.8704 18.6 52.9904 19.14 52.9904 19.79C52.9904 20.31 52.8803 20.83 52.6703 21.33C52.4603 21.83 52.1504 22.27 51.7504 22.66C51.3504 23.04 50.8503 23.36 50.2603 23.59C49.6603 23.82 48.9904 23.94 48.2304 23.94Z" fill="white"/>
<path d="M53.8301 10.21C53.8301 9.73002 53.9701 9.35002 54.2601 9.05002C54.5501 8.76002 54.9401 8.61002 55.4301 8.61002C55.9301 8.61002 56.3201 8.76002 56.6101 9.05002C56.8901 9.35002 57.0301 9.73002 57.0301 10.21C57.0301 10.69 56.8901 11.07 56.6101 11.36C56.3301 11.65 55.9401 11.79 55.4301 11.79C54.9201 11.79 54.5201 11.65 54.2401 11.36C53.9701 11.07 53.8301 10.69 53.8301 10.21ZM54.1501 12.9H56.7101V23.92H54.1501V12.9Z" fill="white"/>
<path d="M58.1807 12.9H60.7007V14.41C61.0607 13.95 61.5307 13.58 62.0807 13.3C62.6407 13.02 63.2807 12.88 63.9907 12.88C65.3607 12.88 66.4307 13.29 67.2007 14.1C67.9707 14.91 68.3607 16.05 68.3607 17.5V23.92H65.7807V17.79C65.7807 16.96 65.5707 16.3 65.1607 15.81C64.7507 15.33 64.1207 15.08 63.3007 15.08C62.5707 15.08 61.9607 15.33 61.4607 15.83C60.9607 16.33 60.7207 17.06 60.7207 18V23.91H58.1807V12.9Z" fill="white"/>
<path d="M78.5002 22.24C78.1002 22.77 77.5802 23.18 76.9602 23.48C76.3302 23.78 75.6502 23.93 74.9102 23.93C74.2402 23.93 73.5902 23.81 72.9402 23.56C72.2902 23.31 71.7102 22.95 71.2002 22.48C70.6802 22.01 70.2702 21.43 69.9602 20.75C69.6502 20.07 69.4902 19.29 69.4902 18.42C69.4902 17.54 69.6402 16.75 69.9502 16.07C70.2602 15.39 70.6702 14.81 71.1702 14.34C71.6802 13.87 72.2602 13.51 72.9202 13.26C73.5802 13.01 74.2502 12.89 74.9502 12.89C75.6802 12.89 76.3502 13.03 76.9702 13.32C77.5802 13.6 78.0902 13.99 78.5002 14.47V12.91H81.0402V23.51C81.0402 24.28 80.9202 25 80.6702 25.67C80.4302 26.34 80.0602 26.93 79.5902 27.43C79.1102 27.93 78.5202 28.33 77.8102 28.62C77.1002 28.91 76.2802 29.06 75.3502 29.06C74.6302 29.06 73.9802 28.98 73.4002 28.82C72.8202 28.66 72.2902 28.44 71.8302 28.16C71.3702 27.88 70.9602 27.54 70.6102 27.16C70.2602 26.78 69.9602 26.35 69.7102 25.89L71.9702 24.52C72.3702 25.26 72.8202 25.81 73.3302 26.18C73.8302 26.54 74.5202 26.73 75.4002 26.73C75.8802 26.73 76.3102 26.64 76.7002 26.47C77.0902 26.29 77.4202 26.06 77.6902 25.77C77.9602 25.48 78.1702 25.14 78.3102 24.75C78.4502 24.36 78.5302 23.96 78.5302 23.54V22.24H78.5002ZM75.3202 21.6C75.8002 21.6 76.2402 21.52 76.6402 21.35C77.0402 21.18 77.3902 20.95 77.6802 20.66C77.9702 20.37 78.2002 20.02 78.3702 19.63C78.5402 19.24 78.6202 18.82 78.6202 18.37C78.6202 17.93 78.5302 17.52 78.3702 17.13C78.2002 16.74 77.9702 16.4 77.6802 16.11C77.3902 15.82 77.0502 15.59 76.6402 15.43C76.2402 15.26 75.8002 15.18 75.3202 15.18C74.8602 15.18 74.4202 15.26 74.0102 15.43C73.6002 15.6 73.2502 15.82 72.9502 16.1C72.6502 16.38 72.4102 16.72 72.2402 17.11C72.0702 17.5 71.9902 17.92 71.9902 18.37C71.9902 18.82 72.0802 19.24 72.2402 19.64C72.4102 20.03 72.6502 20.38 72.9502 20.67C73.2502 20.96 73.6102 21.19 74.0102 21.35C74.4202 21.52 74.8602 21.6 75.3202 21.6Z" fill="white"/>
<path d="M87.2108 23.94C85.9708 23.94 84.9208 23.7 84.0608 23.23C83.2108 22.76 82.4608 22.17 81.8408 21.47L84.1808 19.71C84.5308 20.28 84.9608 20.72 85.4808 21.03C85.9908 21.34 86.5708 21.49 87.1908 21.49C87.8708 21.49 88.3908 21.31 88.7408 20.94C89.0908 20.57 89.2808 20.16 89.2808 19.7C89.2808 19.42 89.2008 19.18 89.0408 18.99C88.8808 18.79 88.6608 18.63 88.4008 18.49C88.1408 18.35 87.8308 18.22 87.4908 18.12C87.1408 18.01 86.7908 17.9 86.4308 17.79C85.9708 17.64 85.5008 17.49 85.0408 17.31C84.5808 17.14 84.1608 16.91 83.7908 16.62C83.4208 16.33 83.1208 15.98 82.8908 15.56C82.6608 15.14 82.5408 14.61 82.5408 13.98C82.5408 13.44 82.6508 12.94 82.8808 12.48C83.1108 12.02 83.4208 11.61 83.8308 11.26C84.2408 10.91 84.7208 10.64 85.2808 10.45C85.8408 10.25 86.4408 10.16 87.1008 10.16C87.6508 10.16 88.1508 10.21 88.6008 10.31C89.0508 10.41 89.4508 10.55 89.8208 10.72C90.1908 10.9 90.5308 11.11 90.8408 11.35C91.1508 11.59 91.4408 11.86 91.7208 12.15L89.6108 13.79C89.0208 12.88 88.1908 12.43 87.1208 12.43C86.4908 12.43 86.0108 12.58 85.6908 12.87C85.3608 13.16 85.2008 13.52 85.2008 13.95C85.2008 14.22 85.2808 14.44 85.4308 14.63C85.5808 14.81 85.7808 14.97 86.0408 15.11C86.3008 15.25 86.6008 15.38 86.9308 15.49C87.2708 15.6 87.6308 15.72 88.0008 15.84C88.4608 15.99 88.9308 16.15 89.4008 16.34C89.8708 16.53 90.3008 16.77 90.6808 17.07C91.0608 17.37 91.3708 17.73 91.6108 18.17C91.8508 18.6 91.9708 19.14 91.9708 19.79C91.9708 20.31 91.8608 20.83 91.6508 21.33C91.4408 21.83 91.1308 22.27 90.7308 22.66C90.3308 23.04 89.8308 23.36 89.2408 23.59C88.6308 23.82 87.9608 23.94 87.2108 23.94Z" fill="white"/>
<path d="M92.8008 10.21C92.8008 9.73002 92.9408 9.35002 93.2308 9.05002C93.5208 8.76002 93.9108 8.61002 94.4008 8.61002C94.9008 8.61002 95.2908 8.76002 95.5808 9.05002C95.8608 9.34002 96.0008 9.73002 96.0008 10.21C96.0008 10.69 95.8608 11.07 95.5808 11.36C95.3008 11.65 94.9008 11.79 94.4008 11.79C93.8808 11.79 93.4908 11.65 93.2108 11.36C92.9408 11.07 92.8008 10.69 92.8008 10.21ZM93.1208 12.9H95.6808V23.92H93.1208V12.9Z" fill="white"/>
<path d="M97.1504 12.9H99.6704V14.41C100.03 13.95 100.5 13.58 101.05 13.3C101.61 13.02 102.25 12.88 102.96 12.88C104.33 12.88 105.4 13.29 106.17 14.1C106.94 14.91 107.33 16.05 107.33 17.5V23.92H104.75V17.79C104.75 16.96 104.54 16.3 104.13 15.81C103.72 15.33 103.09 15.08 102.27 15.08C101.54 15.08 100.93 15.33 100.43 15.83C99.9304 16.33 99.6904 17.06 99.6904 18V23.91H97.1504V12.9Z" fill="white"/>
<path d="M117.481 22.24C117.081 22.77 116.561 23.18 115.941 23.48C115.311 23.78 114.631 23.93 113.891 23.93C113.221 23.93 112.571 23.81 111.921 23.56C111.271 23.31 110.691 22.95 110.181 22.48C109.671 22.01 109.251 21.43 108.941 20.75C108.631 20.07 108.471 19.29 108.471 18.42C108.471 17.54 108.621 16.75 108.931 16.07C109.241 15.39 109.651 14.81 110.151 14.34C110.661 13.87 111.241 13.51 111.901 13.26C112.561 13.01 113.231 12.89 113.921 12.89C114.651 12.89 115.321 13.03 115.941 13.32C116.561 13.6 117.061 13.99 117.471 14.47V12.91H120.001V23.51C120.001 24.28 119.881 25 119.631 25.67C119.391 26.34 119.021 26.93 118.551 27.43C118.071 27.93 117.481 28.33 116.771 28.62C116.061 28.91 115.241 29.06 114.311 29.06C113.591 29.06 112.941 28.98 112.361 28.82C111.781 28.66 111.251 28.44 110.791 28.16C110.331 27.88 109.921 27.54 109.571 27.16C109.221 26.78 108.921 26.35 108.671 25.89L110.931 24.52C111.331 25.26 111.781 25.81 112.291 26.18C112.791 26.54 113.481 26.73 114.361 26.73C114.841 26.73 115.271 26.64 115.661 26.47C116.051 26.29 116.381 26.06 116.651 25.77C116.921 25.48 117.131 25.14 117.271 24.75C117.411 24.36 117.491 23.96 117.491 23.54V22.24H117.481ZM114.291 21.6C114.771 21.6 115.211 21.52 115.611 21.35C116.011 21.18 116.361 20.95 116.651 20.66C116.941 20.37 117.171 20.02 117.341 19.63C117.511 19.24 117.591 18.82 117.591 18.37C117.591 17.93 117.501 17.52 117.341 17.13C117.171 16.74 116.941 16.4 116.651 16.11C116.361 15.82 116.021 15.59 115.611 15.43C115.211 15.26 114.771 15.18 114.291 15.18C113.831 15.18 113.391 15.26 112.981 15.43C112.571 15.6 112.221 15.82 111.921 16.1C111.621 16.38 111.381 16.72 111.211 17.11C111.041 17.5 110.961 17.92 110.961 18.37C110.961 18.82 111.041 19.24 111.211 19.64C111.381 20.03 111.621 20.38 111.921 20.67C112.221 20.96 112.581 21.19 112.981 21.35C113.391 21.52 113.831 21.6 114.291 21.6Z" fill="white"/>
<path d="M17.5903 21.89C19.2803 21.89 20.6503 20.52 20.6503 18.83C20.6503 17.14 19.2803 15.77 17.5903 15.77C15.9003 15.77 14.5303 17.14 14.5303 18.83C14.5303 20.52 15.9003 21.89 17.5903 21.89Z" fill="#B226C5"/>
</g>
<defs>
<clipPath id="clip0_1231_174">
<rect width="120" height="34.34" fill="white" transform="translate(0 0.830017)"/>
</clipPath>
</defs>
</svg>
