<svg width="174" height="50" viewBox="0 0 174 50" fill="none" xmlns="http://www.w3.org/2000/svg">
<path d="M20.0746 26.2124C20.0746 29.2116 22.5065 31.6364 25.4986 31.6364C28.4977 31.6364 30.9226 29.2045 30.9226 26.2124C30.9226 23.2133 28.4906 20.7884 25.4986 20.7884C22.5065 20.7884 20.0746 23.2204 20.0746 26.2124ZM18.536 10.2808C18.8267 9.33069 19.1954 8.36642 19.5428 7.89847C20.7411 6.29609 22.5136 5.25383 24.5272 4.97731C26.5976 4.6937 28.6466 5.23965 30.2915 6.50879L30.3766 6.57969C30.4192 6.62224 30.4901 6.70023 30.5822 6.77113C32.603 8.47277 32.9433 10.9047 32.9433 10.9331L34.5244 23.1566C34.7584 24.1066 35.3398 24.9787 36.1693 25.6168C36.9563 26.2266 37.9064 26.5457 38.8849 26.5457C39.0763 26.5457 39.2748 26.5315 39.4663 26.5102C40.6503 26.3542 41.6997 25.7516 42.4229 24.8086C43.926 22.8588 43.5644 20.0581 41.6146 18.555C40.8134 17.9382 39.842 17.6049 38.8352 17.6333L38.4594 14.7121C39.4237 14.6909 40.3951 14.7334 40.9339 14.9107C42.8341 15.5346 44.3868 16.8817 45.2873 18.7039C46.2161 20.5757 46.3508 22.6886 45.6702 24.6597L45.6276 24.7589C45.5993 24.8086 45.5567 24.9078 45.5071 25.0142C44.5428 27.4603 42.3378 28.5664 42.3165 28.5805L31.2345 33.9762C30.4121 34.5009 29.7669 35.3304 29.4265 36.323C29.0366 37.4504 29.1075 38.6628 29.6322 39.7334C30.1497 40.804 31.0573 41.6052 32.1846 41.9952C32.6597 42.1583 33.156 42.2433 33.6452 42.2433C34.3117 42.2433 34.9782 42.0944 35.595 41.7896C36.6656 41.2649 37.4739 40.3644 37.8568 39.2371C38.19 38.2799 38.1829 37.2518 37.8497 36.3089L40.4589 35.0397C40.7709 35.9614 41.0332 37.0108 41.0261 37.6205C41.0048 39.6271 40.1895 41.506 38.7289 42.9169C37.2258 44.3704 35.2618 45.1361 33.1702 45.0865L33.0567 45.0794C33 45.0652 32.8936 45.0511 32.7731 45.044C30.1427 44.8667 28.4268 43.1012 28.4056 43.0871L19.9328 34.1605C19.1812 33.5295 18.1957 33.175 17.1463 33.1466C15.9481 33.1112 14.8279 33.5508 13.9628 34.3732C13.0978 35.1957 12.6086 36.3018 12.5803 37.4929C12.5164 39.9532 14.4733 42.0023 16.9265 42.059C17.9404 42.0874 18.9118 41.7683 19.713 41.1656L21.7266 43.2785C20.9396 43.867 20.0888 44.4271 19.5357 44.5973C17.6214 45.1929 15.5794 44.9943 13.7927 44.0301C11.9492 43.0445 10.6163 41.3996 10.0278 39.4002L9.99943 39.2938C9.99234 39.2371 9.97816 39.1307 9.94271 39.0173C9.31168 36.4719 10.4603 34.2811 10.4745 34.2598L16.3735 23.4402C16.7422 22.5326 16.7847 21.4833 16.487 20.4836C15.7921 18.1225 13.3106 16.7683 10.9495 17.4631C8.58849 18.158 7.23426 20.6395 7.9291 23.0006C8.21271 23.9719 8.81537 24.8015 9.63783 25.3829L8.23397 27.9566C7.4186 27.3965 6.61741 26.7655 6.26999 26.2904C5.09302 24.6668 4.63216 22.6673 4.97249 20.6679C5.31991 18.6117 6.44725 16.8179 8.15598 15.6197C8.17725 15.6055 8.19143 15.5984 8.21271 15.5842L8.24816 15.563C8.30488 15.5346 8.39705 15.485 8.49631 15.4212C10.7085 14.0102 13.1475 14.4002 13.1758 14.4073L25.3142 16.5414C26.2927 16.6052 27.2995 16.3074 28.1574 15.7048C29.1358 15.0241 29.7881 13.996 29.9938 12.8261C30.1994 11.6563 29.937 10.4722 29.2564 9.49376C28.5757 8.51532 27.5476 7.87011 26.3778 7.6574C25.2008 7.45179 24.0238 7.71412 23.0454 8.39478C22.2158 8.97618 21.6203 9.80573 21.3296 10.77L18.536 10.2808ZM24.0026 0.120533C20.6702 0.553035 17.7065 2.25468 15.6574 4.90641C14.5655 6.40244 14.0125 8.13954 13.6651 9.43704C11.6798 9.22433 8.95718 9.83409 8.83664 9.86245C7.62422 10.2524 6.39762 10.8622 5.35536 11.5995C2.61146 13.521 0.775099 16.4067 0.193704 19.7178C-0.387692 23.0289 0.349686 26.3684 2.27113 29.1123C3.34884 30.5587 4.78105 31.5868 5.9013 32.3029C5.09302 34.1322 4.83778 36.9257 4.8236 37.0533C4.80232 38.3579 4.97249 39.6058 5.31991 40.7899C6.2629 44.0088 8.41123 46.6676 11.3678 48.2771C13.2467 49.2981 15.3029 49.8227 17.3803 49.8227C18.5715 49.8227 19.7626 49.6526 20.9325 49.3052C22.6696 48.7379 24.1231 47.6886 25.1583 46.8449C26.633 48.1707 29.1217 49.2697 29.2351 49.3193C30.4404 49.7235 31.7876 49.9575 33.0638 49.9929C33.1702 49.9929 33.2694 50 33.3758 50C40.1682 50 45.7765 44.5618 45.9396 37.734C45.9325 35.9118 45.3653 34.1747 44.869 32.8772C46.5919 31.8846 48.4282 29.8071 48.5062 29.7079L48.563 29.6441L48.6055 29.5165C49.3358 28.5026 49.9101 27.4107 50.3072 26.2621C51.399 23.0927 51.1934 19.6824 49.7258 16.6549C48.251 13.6344 45.6985 11.3656 42.5292 10.2666C40.8488 9.74192 39.1188 9.73483 37.8001 9.80573C37.3817 7.87011 36.0346 5.53035 35.9779 5.42399C35.2476 4.38174 34.2975 3.3962 33.2836 2.61628C31.0644 0.907544 28.3985 0 25.6404 0C25.1015 0.0141804 24.5485 0.0496314 24.0026 0.120533Z" fill="white"/>
<path d="M67.4442 37.5709C65.6007 37.5709 64.0551 37.2234 62.7859 36.5286C61.5239 35.8338 60.4249 34.9617 59.4961 33.9194L62.9561 31.3173C63.4737 32.1681 64.1189 32.8204 64.8775 33.2671C65.6362 33.7209 66.487 33.9478 67.4158 33.9478C68.4226 33.9478 69.1884 33.6783 69.7131 33.1324C70.2448 32.5935 70.5072 31.9767 70.5072 31.2889C70.5072 30.8777 70.3866 30.5232 70.1456 30.2325C69.9045 29.9418 69.5854 29.6937 69.1955 29.488C68.8055 29.2824 68.3517 29.0981 67.8412 28.935C67.3307 28.7719 66.8061 28.6089 66.2672 28.4458C65.5795 28.2331 64.8917 27.992 64.204 27.7439C63.5162 27.4886 62.8994 27.1554 62.3463 26.73C61.8004 26.3045 61.3537 25.7799 61.0063 25.1559C60.666 24.532 60.4887 23.7521 60.4887 22.8162C60.4887 22.0221 60.6589 21.2847 60.9921 20.5969C61.3254 19.9092 61.7933 19.3136 62.4031 18.796C63.0057 18.2855 63.7218 17.8814 64.5514 17.5907C65.3809 17.3 66.2743 17.1582 67.2386 17.1582C68.0539 17.1582 68.7984 17.2362 69.4578 17.3851C70.1172 17.534 70.7199 17.7396 71.2729 17.9948C71.8188 18.2572 72.3222 18.5692 72.776 18.9308C73.2298 19.2923 73.6623 19.6894 74.0735 20.1148L70.9538 22.5467C70.0817 21.2067 68.8551 20.5402 67.274 20.5402C66.3452 20.5402 65.6362 20.7529 65.1541 21.1925C64.6719 21.625 64.4309 22.1568 64.4309 22.7878C64.4309 23.1849 64.5443 23.5181 64.7641 23.7875C64.9839 24.057 65.2888 24.298 65.6716 24.5036C66.0545 24.7093 66.4941 24.8936 66.9975 25.0567C67.5009 25.2197 68.0256 25.3899 68.5857 25.5743C69.2735 25.7941 69.9683 26.0422 70.6631 26.3187C71.358 26.6023 71.989 26.9568 72.5562 27.4035C73.1234 27.8431 73.5843 28.3891 73.9388 29.0272C74.2933 29.6653 74.4706 30.4665 74.4706 31.4237C74.4706 32.1965 74.3146 32.9551 73.9955 33.6996C73.6765 34.437 73.2227 35.0964 72.6271 35.6636C72.0315 36.2308 71.3013 36.6917 70.4221 37.0462C69.5571 37.4007 68.5574 37.5709 67.4442 37.5709Z" fill="white"/>
<path d="M75.7266 17.2504C75.7266 16.5414 75.9393 15.9742 76.3647 15.5346C76.7901 15.095 77.3715 14.8823 78.0947 14.8823C78.8392 14.8823 79.4205 15.1021 79.8389 15.5346C80.2572 15.9742 80.4628 16.5414 80.4628 17.2504C80.4628 17.9595 80.2572 18.5267 79.8389 18.9521C79.4205 19.3775 78.8392 19.5902 78.0947 19.5902C77.336 19.5902 76.7475 19.3775 76.3363 18.9521C75.9322 18.5196 75.7266 17.9524 75.7266 17.2504ZM76.2016 21.2351H79.9949V37.5426H76.2016V21.2351Z" fill="white"/>
<path d="M82.1641 21.2349H85.9006V23.4612C86.4394 22.7806 87.1201 22.2346 87.9497 21.8234C88.7792 21.4122 89.7222 21.2065 90.7786 21.2065C92.8064 21.2065 94.3875 21.8092 95.5291 23.0145C96.6706 24.2199 97.2449 25.9002 97.2449 28.0486V37.5423H93.4233V28.474C93.4233 27.2403 93.1184 26.2618 92.5016 25.5457C91.8847 24.8296 90.9701 24.468 89.7435 24.468C88.6658 24.468 87.7582 24.8367 87.0279 25.5812C86.2906 26.3257 85.929 27.3963 85.929 28.793V37.5352H82.1641V21.2349Z" fill="white"/>
<path d="M112.247 35.0683C111.651 35.8483 110.892 36.4651 109.964 36.9118C109.035 37.3585 108.021 37.5783 106.922 37.5783C105.936 37.5783 104.965 37.3939 104.008 37.0252C103.051 36.6565 102.193 36.1248 101.427 35.4229C100.661 34.7209 100.051 33.8701 99.5835 32.8562C99.1156 31.8423 98.8887 30.6937 98.8887 29.4033C98.8887 28.0987 99.1156 26.9359 99.5693 25.922C100.023 24.9081 100.626 24.0573 101.377 23.3554C102.129 22.6534 102.994 22.1217 103.972 21.7601C104.951 21.3914 105.95 21.207 106.971 21.207C108.049 21.207 109.042 21.4197 109.956 21.8381C110.864 22.2564 111.623 22.8236 112.218 23.5397V21.2354H115.983V36.926C115.983 38.0604 115.799 39.1239 115.437 40.1166C115.076 41.1092 114.537 41.9742 113.835 42.7187C113.126 43.4631 112.254 44.0516 111.197 44.477C110.148 44.9095 108.935 45.1222 107.56 45.1222C106.496 45.1222 105.539 45.0088 104.674 44.7748C103.809 44.5408 103.036 44.2147 102.349 43.7964C101.661 43.378 101.058 42.8888 100.534 42.3216C100.016 41.7544 99.5693 41.1234 99.1935 40.4356L102.54 38.4007C103.136 39.4997 103.802 40.3151 104.547 40.8539C105.291 41.3928 106.312 41.6622 107.617 41.6622C108.326 41.6622 108.964 41.5346 109.538 41.2723C110.112 41.0099 110.602 40.6696 110.999 40.2442C111.396 39.8188 111.708 39.3154 111.92 38.7411C112.133 38.1668 112.239 37.5712 112.239 36.9543V35.0683H112.247ZM107.539 34.1183C108.248 34.1183 108.893 33.9977 109.488 33.7496C110.084 33.5085 110.595 33.1611 111.02 32.7286C111.445 32.289 111.786 31.7856 112.041 31.2113C112.296 30.637 112.417 30.013 112.417 29.3537C112.417 28.7085 112.289 28.0987 112.041 27.5173C111.793 26.943 111.452 26.4396 111.02 26.0142C110.595 25.5888 110.084 25.2484 109.488 25.0074C108.893 24.7592 108.241 24.6387 107.539 24.6387C106.851 24.6387 106.206 24.7592 105.603 25.0074C105 25.2555 104.476 25.5817 104.029 26C103.582 26.4183 103.235 26.9146 102.987 27.496C102.739 28.0703 102.611 28.6943 102.611 29.3537C102.611 30.0201 102.739 30.6441 102.987 31.2255C103.235 31.8069 103.589 32.3174 104.029 32.7428C104.476 33.1682 105 33.5085 105.603 33.7496C106.206 33.9977 106.851 34.1183 107.539 34.1183Z" fill="white"/>
<path d="M125.13 37.5709C123.286 37.5709 121.741 37.2234 120.471 36.5286C119.209 35.8338 118.11 34.9617 117.182 33.9194L120.642 31.3173C121.159 32.1681 121.804 32.8204 122.563 33.2671C123.322 33.7209 124.173 33.9478 125.101 33.9478C126.108 33.9478 126.874 33.6783 127.399 33.1324C127.93 32.5935 128.193 31.9767 128.193 31.2889C128.193 30.8777 128.072 30.5232 127.831 30.2325C127.59 29.9418 127.271 29.6937 126.881 29.488C126.491 29.2824 126.037 29.0981 125.527 28.935C125.016 28.7719 124.492 28.6089 123.953 28.4458C123.265 28.2331 122.577 27.992 121.89 27.7439C121.202 27.4886 120.585 27.1554 120.039 26.73C119.493 26.3045 119.046 25.7799 118.699 25.1559C118.352 24.532 118.181 23.7521 118.181 22.8162C118.181 22.0221 118.352 21.2847 118.685 20.5969C119.018 19.9092 119.486 19.3136 120.096 18.796C120.698 18.2855 121.414 17.8814 122.244 17.5907C123.074 17.3 123.967 17.1582 124.931 17.1582C125.747 17.1582 126.484 17.2362 127.15 17.3851C127.81 17.534 128.413 17.7396 128.966 17.9948C129.511 18.2572 130.015 18.5692 130.469 18.9308C130.922 19.2923 131.355 19.6894 131.766 20.1148L128.646 22.5467C127.774 21.2067 126.548 20.5402 124.967 20.5402C124.038 20.5402 123.329 20.7529 122.847 21.1925C122.365 21.625 122.124 22.1568 122.124 22.7878C122.124 23.1849 122.237 23.5181 122.457 23.7875C122.684 24.057 122.981 24.298 123.364 24.5036C123.747 24.7093 124.187 24.8936 124.69 25.0567C125.194 25.2197 125.718 25.3899 126.278 25.5743C126.966 25.7941 127.661 26.0422 128.356 26.3187C129.051 26.6023 129.682 26.9568 130.249 27.4035C130.816 27.8431 131.277 28.3891 131.631 29.0272C131.986 29.6653 132.163 30.4665 132.163 31.4237C132.163 32.1965 132.007 32.9551 131.688 33.6996C131.369 34.437 130.915 35.0964 130.32 35.6636C129.724 36.2308 128.987 36.6917 128.115 37.0462C127.243 37.4007 126.243 37.5709 125.13 37.5709Z" fill="white"/>
<path d="M133.412 17.2504C133.412 16.5414 133.625 15.9742 134.05 15.5346C134.476 15.095 135.057 14.8823 135.78 14.8823C136.525 14.8823 137.106 15.1021 137.524 15.5346C137.943 15.9742 138.155 16.5414 138.155 17.2504C138.155 17.9595 137.943 18.5267 137.524 18.9521C137.106 19.3775 136.525 19.5902 135.78 19.5902C135.022 19.5902 134.433 19.3775 134.022 18.9521C133.618 18.5196 133.412 17.9524 133.412 17.2504ZM133.887 21.2351H137.68V37.5426H133.887V21.2351Z" fill="white"/>
<path d="M139.851 21.2349H143.587V23.4612C144.126 22.7806 144.807 22.2346 145.636 21.8234C146.466 21.4122 147.409 21.2065 148.465 21.2065C150.493 21.2065 152.074 21.8092 153.216 23.0145C154.357 24.2199 154.932 25.9002 154.932 28.0486V37.5423H151.11V28.474C151.11 27.2403 150.805 26.2618 150.188 25.5457C149.571 24.8296 148.657 24.468 147.43 24.468C146.353 24.468 145.445 24.8367 144.708 25.5812C143.97 26.3257 143.609 27.3963 143.609 28.793V37.5352H139.844V21.2349H139.851Z" fill="white"/>
<path d="M169.933 35.0683C169.337 35.8483 168.579 36.4651 167.65 36.9118C166.721 37.3585 165.707 37.5783 164.608 37.5783C163.623 37.5783 162.651 37.3939 161.694 37.0252C160.737 36.6565 159.879 36.1248 159.113 35.4229C158.355 34.7209 157.738 33.8701 157.277 32.8562C156.809 31.8423 156.582 30.6937 156.582 29.4033C156.582 28.0987 156.809 26.9359 157.263 25.922C157.716 24.9081 158.319 24.0573 159.078 23.3554C159.829 22.6534 160.694 22.1217 161.673 21.7601C162.651 21.3914 163.651 21.207 164.672 21.207C165.75 21.207 166.742 21.4197 167.657 21.8381C168.564 22.2564 169.323 22.8236 169.919 23.5397V21.2354H173.684V36.926C173.684 38.0604 173.499 39.1239 173.138 40.1166C172.776 41.1092 172.244 41.9742 171.535 42.7187C170.826 43.4631 169.947 44.0516 168.898 44.477C167.848 44.9095 166.636 45.1222 165.26 45.1222C164.197 45.1222 163.24 45.0088 162.375 44.7748C161.51 44.5408 160.737 44.2147 160.049 43.7964C159.361 43.378 158.759 42.8888 158.234 42.3216C157.716 41.7544 157.27 41.1234 156.894 40.4356L160.241 38.4007C160.836 39.4997 161.503 40.3151 162.247 40.8539C162.992 41.3928 164.013 41.6622 165.317 41.6622C166.026 41.6622 166.664 41.5346 167.239 41.2723C167.813 41.0099 168.302 40.6696 168.699 40.2442C169.096 39.8188 169.408 39.3154 169.621 38.7411C169.834 38.1668 169.94 37.5712 169.94 36.9543V35.0683H169.933ZM165.225 34.1183C165.934 34.1183 166.579 33.9977 167.175 33.7496C167.77 33.5085 168.281 33.1611 168.706 32.7286C169.132 32.289 169.472 31.7856 169.72 31.2113C169.968 30.637 170.096 30.013 170.096 29.3537C170.096 28.7085 169.968 28.0987 169.72 27.5173C169.472 26.943 169.132 26.4396 168.706 26.0142C168.281 25.5888 167.77 25.2484 167.175 25.0074C166.579 24.7592 165.927 24.6387 165.225 24.6387C164.537 24.6387 163.892 24.7592 163.289 25.0074C162.687 25.2555 162.162 25.5817 161.715 26C161.269 26.4183 160.921 26.9146 160.673 27.496C160.425 28.0703 160.297 28.6943 160.297 29.3537C160.297 30.0201 160.425 30.6441 160.673 31.2255C160.921 31.8069 161.276 32.3174 161.715 32.7428C162.162 33.1682 162.687 33.5085 163.289 33.7496C163.885 33.9977 164.537 34.1183 165.225 34.1183Z" fill="white"/>
</svg>
